<svg width="55" height="55" viewBox="0 0 55 55" fill="none" xmlns="http://www.w3.org/2000/svg">
<rect x="0.5" y="0.5" width="54" height="54" stroke="#CFB53B"/>
<path d="M32.0833 9.16667H48.125M32.0833 20.625H48.125M32.0833 34.375H48.125M32.0833 45.8333H48.125M9.16667 6.875H20.625C21.8907 6.875 22.9167 7.90101 22.9167 9.16667V20.625C22.9167 21.8907 21.8907 22.9167 20.625 22.9167H9.16667C7.90101 22.9167 6.875 21.8907 6.875 20.625V9.16667C6.875 7.90101 7.90101 6.875 9.16667 6.875ZM9.16667 32.0833H20.625C21.8907 32.0833 22.9167 33.1093 22.9167 34.375V45.8333C22.9167 47.099 21.8907 48.125 20.625 48.125H9.16667C7.90101 48.125 6.875 47.099 6.875 45.8333V34.375C6.875 33.1093 7.90101 32.0833 9.16667 32.0833Z" stroke="#CFB53B" stroke-width="2" stroke-linecap="round" stroke-linejoin="round"/>
</svg>
