<?xml version="1.0" encoding="utf-8"?>
<!-- Generator: Adobe Illustrator 19.0.0, SVG Export Plug-In . SVG Version: 6.00 Build 0)  -->
<svg version="1.1" xmlns="http://www.w3.org/2000/svg" xmlns:xlink="http://www.w3.org/1999/xlink" x="0px" y="0px"
	 viewBox="0 0 248.666 243.952" enable-background="new 0 0 248.666 243.952" xml:space="preserve">
<g id="Livello_1">
	<path fill="#CFB53B" d="M123.106,25.157c-8.654,0-15.676,2.106-21.065,6.319c-5.391,4.213-8.084,10.04-8.084,17.479
		c0,5.01,1.176,9.072,3.53,12.184c2.352,3.113,5.162,5.465,8.426,7.06c3.231,1.579,7.398,3.158,12.493,4.736l0.005-11.902
		c-1.672-0.592-3.137-1.184-4.349-1.776c-1.864-0.91-3.468-2.253-4.81-4.03c-1.344-1.776-2.015-4.095-2.015-6.956
		c0-4.246,1.538-7.573,4.615-9.978c3.077-2.405,7.085-3.608,12.026-3.608c0.35,0,0.685,0.02,1.026,0.031v-9.504
		C124.306,25.191,123.72,25.157,123.106,25.157z"/>
	<path fill="#CFB53B" d="M126.699,101.259c8.654,0,15.676-2.106,21.065-6.319c5.391-4.213,8.084-10.04,8.084-17.479
		c0-5.01-1.176-9.072-3.53-12.184c-2.352-3.113-5.162-5.465-8.426-7.06c-3.231-1.579-7.398-3.158-12.493-4.736l-0.005,11.902
		c1.672,0.592,3.137,1.184,4.349,1.776c1.864,0.91,3.468,2.253,4.81,4.03c1.344,1.776,2.015,4.095,2.015,6.956
		c0,4.246-1.538,7.573-4.615,9.978c-3.077,2.405-7.085,3.608-12.026,3.608c-0.35,0-0.685-0.02-1.026-0.031v9.504
		C125.499,101.225,126.085,101.259,126.699,101.259z"/>
</g>
<g id="guide" display="none">
</g>
<g id="tracciato_immagine">
	<g>
		<path fill="#0E2B2C" d="M34.598,145.463c3.445,0,5.167-1.599,5.167-4.797c0-0.195,0.103-0.293,0.309-0.293H41
			c0.206,0,0.309,0.098,0.309,0.293v13.623c0,0.195-0.103,0.293-0.309,0.293h-0.925c-0.206,0-0.309-0.098-0.309-0.293
			c0-2.246-0.669-3.796-2.005-4.65c-0.72-0.464-1.749-0.696-3.085-0.696H19.481c-0.617,0-0.925,0.329-0.925,0.989v18.822
			c0,1.661,1.047,2.888,3.143,3.681c2.095,0.794,3.419,1.19,3.972,1.19c0.553,0,0.829,0.098,0.829,0.293v0.879
			c0,0.195-0.103,0.293-0.309,0.293H5.135c-0.206,0-0.309-0.098-0.309-0.293v-0.879c0-0.195,0.218-0.293,0.656-0.293
			c0.437,0,1.118-0.195,2.044-0.586c0.925-0.391,1.741-0.971,2.449-1.739c0.707-0.77,1.061-1.703,1.061-2.802v-39.551
			c0-1.587-0.887-2.722-2.661-3.406c-1.028-0.414-2.044-0.622-3.046-0.622H5.174c-0.206,0-0.309-0.098-0.309-0.293v-0.879
			c0-0.195,0.103-0.293,0.309-0.293H41.54c0.309,0.049,0.54,0.116,0.694,0.201c0.154,0.086,0.231,0.3,0.231,0.642v8.861
			c0,0.293-0.045,0.477-0.135,0.55c-0.09,0.073-0.25,0.11-0.482,0.11h-0.463c-0.052-0.024-0.226-0.69-0.521-1.996
			c-0.296-1.306-0.752-2.313-1.369-3.021c-1.055-1.074-2.25-1.672-3.586-1.795c-0.54-0.048-1.195-0.072-1.967-0.072H19.327
			c-0.515,0-0.771,0.244-0.771,0.732v16.955c0,0.562,0.308,0.842,0.925,0.842H34.598z"/>
		<path fill="#0E2B2C" d="M68.65,124.919c-4.319,0-6.479,1.636-6.479,4.907v26.221c0,4.834,1.684,8.783,5.052,11.847
			c3.368,3.064,7.687,4.597,12.957,4.597c5.476,0,9.969-1.397,13.479-4.193c3.509-2.796,5.264-6.671,5.264-11.627v-23.291
			c0-2.319-0.219-3.931-0.656-4.834c-1.105-2.418-3.6-3.626-7.481-3.626c-0.206,0-0.309-0.098-0.309-0.293v-0.879
			c0-0.195,0.103-0.293,0.309-0.293h18.973c0.206,0,0.309,0.098,0.309,0.293v0.879c0,0.195-0.283,0.293-0.849,0.293
			c-3.368,0-5.425,1.245-6.17,3.735c-0.129,0.415-0.193,0.806-0.193,1.172v23.986c0,10.719-4.319,17.615-12.958,20.691
			c-2.905,1.05-5.798,1.574-8.677,1.574c-10.31,0-17.907-2.563-22.792-7.689c-2.52-2.637-3.779-5.896-3.779-9.778v-29.297
			c0-2.075-1.325-3.442-3.972-4.102c-0.771-0.195-1.427-0.293-1.967-0.293c-0.54,0-0.81-0.098-0.81-0.293v-0.879
			c0-0.195,0.09-0.293,0.27-0.293h20.902c0.205,0,0.308,0.098,0.308,0.293v0.879C69.382,124.821,69.138,124.919,68.65,124.919z"/>
		<path fill="#0E2B2C" d="M112.998,175.09c-0.206,0-0.309-0.244-0.309-0.732v-0.439c0-0.195,0.103-0.293,0.309-0.293
			c0.154,0,0.398-0.024,0.732-0.073s0.681-0.098,1.042-0.146c0.36-0.049,0.694-0.104,1.002-0.165
			c0.309-0.061,0.527-0.104,0.656-0.128c2.623-0.562,3.934-1.978,3.934-4.248v-38.672c0-2.1-0.887-3.589-2.661-4.468
			c-1.054-0.537-2.186-0.806-3.394-0.806h-1.465c-0.206,0-0.309-0.098-0.309-0.293v-0.879c0-0.195,0.154-0.293,0.463-0.293
			l21.172-0.55h3.896c4.55,0.293,8.361,1.862,11.434,4.706c3.072,2.845,4.608,6.349,4.608,10.511s-1.825,7.403-5.476,9.723
			c-1.132,0.708-2.353,1.343-3.664,1.904l11.685,18.127c2.031,3.175,4.757,5.408,8.176,6.702c0.283,0.073,0.425,0.244,0.425,0.513
			c0,0.61-0.425,0.916-1.273,0.916c-5.784,0-10.387-2.088-13.806-6.263c-0.746-0.928-1.491-1.965-2.236-3.112l-9.988-14.869
			l-9.178-0.402h-0.309c-0.386,0-0.579,0.171-0.579,0.513v16.882c0,1.344,0.398,2.344,1.196,3.004
			c0.796,0.658,2.172,1.11,4.126,1.354c0.514,0.073,1.144,0.178,1.89,0.312c0.745,0.134,1.253,0.201,1.523,0.201
			c0.27,0,0.404,0.098,0.404,0.293v0.879c0,0.195-0.103,0.293-0.309,0.293H112.998z M131.008,124.827
			c-0.309,0.013-0.637,0.024-0.983,0.037s-0.791,0.024-1.33,0.036c-0.54,0.013-0.811,0.214-0.811,0.604v22.192l0.077,1.099
			c0.077,0.513,0.321,0.781,0.733,0.806l3.934,0.22c7.224,0,11.581-2.441,13.072-7.324c0.488-1.538,0.733-3.296,0.733-5.273
			c0-3.857-1.267-6.896-3.799-9.118s-5.766-3.333-9.699-3.333c-0.36,0-0.693,0.006-1.002,0.019S131.316,124.816,131.008,124.827z"/>
		<path fill="#0E2B2C" d="M175.433,129.314c0-2.93-1.773-4.395-5.321-4.395c-0.566,0-0.849-0.098-0.849-0.293v-0.879
			c0-0.195,0.103-0.293,0.309-0.293h19.32c0.206,0,0.309,0.098,0.309,0.293v0.879c0,0.195-0.565,0.293-1.697,0.293
			c-1.131,0-2.172,0.342-3.123,1.025s-1.427,2.087-1.427,4.212v39.074c0,2.93,1.786,4.395,5.36,4.395c0.54,0,0.81,0.098,0.81,0.293
			v0.879c0,0.195-0.103,0.293-0.309,0.293h-19.32c-0.206,0-0.309-0.098-0.309-0.293v-0.879c0-0.195,0.565-0.293,1.697-0.293
			c1.131,0,2.172-0.342,3.123-1.025s1.427-2.088,1.427-4.211V129.314z"/>
		<path fill="#0E2B2C" d="M213.187,174.797c0,0.195-0.103,0.293-0.309,0.293h-19.706c-0.206,0-0.309-0.098-0.309-0.293v-0.879
			c0-0.195,0.167-0.293,0.502-0.293c3.521-0.146,5.9-1.929,7.134-5.347l15.734-43.249c0.025-0.049,0.038-0.11,0.038-0.184
			l-0.424-1.209c0-0.121,0.052-0.183,0.154-0.183h7.713c0.051,0.024,0.122,0.049,0.212,0.073s0.16,0.098,0.212,0.22l16.313,43.47
			c0.36,0.658,0.649,1.257,0.868,1.794c0.218,0.537,0.469,1.025,0.752,1.465c0.617,1.001,1.632,1.771,3.047,2.308
			c1.182,0.562,2.262,0.842,3.239,0.842c0.205,0,0.309,0.109,0.309,0.33v0.842c0,0.195-0.104,0.293-0.309,0.293h-23.602
			c-0.206,0-0.309-0.098-0.309-0.293v-0.879c0-0.195,0.476-0.317,1.427-0.366s1.735-0.098,2.353-0.146
			c3.573-0.366,5.36-1.514,5.36-3.442c0-0.146-0.025-0.317-0.077-0.513l-5.823-15.601c-0.025-0.049-0.077-0.158-0.154-0.33
			c-0.309-0.829-0.848-1.244-1.619-1.244h-13.69c-0.771,0-1.376,0.402-1.813,1.208c-0.077,0.171-0.115,0.269-0.115,0.293
			l-5.785,16.077v0.329c0,0.635,0.348,1.208,1.041,1.722c1.568,1.147,3.677,1.721,6.325,1.721h1.002
			c0.206,0,0.309,0.098,0.309,0.293V174.797z M224.602,148.21c0.463,0,0.694-0.183,0.694-0.55c0-0.194-0.052-0.414-0.154-0.658
			l-5.746-15.016c-0.257-0.658-0.45-0.988-0.578-0.988c-0.129,0-0.335,0.342-0.617,1.025l-5.399,14.979
			c-0.103,0.244-0.154,0.507-0.154,0.787s0.193,0.421,0.579,0.421H224.602z"/>
	</g>
	<g>
		<g>
			<path fill="#0E2B2C" d="M2.499,188.723c0-1.172-0.71-1.758-2.129-1.758c-0.227,0-0.34-0.039-0.34-0.117v-0.352
				c0-0.078,0.041-0.117,0.124-0.117h7.728c0.082,0,0.124,0.039,0.124,0.117v0.352c0,0.078-0.227,0.117-0.679,0.117
				c-0.453,0-0.869,0.137-1.25,0.41s-0.57,0.835-0.57,1.685v15.63c0,1.172,0.714,1.758,2.144,1.758c0.216,0,0.324,0.039,0.324,0.117
				v0.352c0,0.078-0.041,0.117-0.123,0.117H0.123c-0.082,0-0.123-0.039-0.123-0.117v-0.352c0-0.078,0.226-0.117,0.679-0.117
				c0.452,0,0.868-0.137,1.249-0.41s0.571-0.835,0.571-1.685V188.723z"/>
			<path fill="#0E2B2C" d="M19.808,206.447c0.062,0,0.092,0.039,0.092,0.117v0.352c0,0.078-0.03,0.117-0.092,0.117h-7.204
				c-0.082,0-0.123-0.039-0.123-0.117v-0.352c0-0.078,0.041-0.117,0.123-0.117c1.687,0,2.602-0.688,2.746-2.065
				c0.041-0.4,0.085-1.066,0.131-1.999s0.183-2.939,0.409-6.021c0.226-3.081,0.339-5.574,0.339-7.479v-0.542
				c0-0.391-0.234-0.718-0.702-0.981s-0.81-0.396-1.025-0.396s-0.324-0.039-0.324-0.117v-0.352c0-0.078,0.041-0.117,0.124-0.117
				h4.458c0.194,0.029,0.354,0.137,0.478,0.322l7.234,15.308c0.052,0.068,0.093,0.127,0.124,0.176
				c0.03,0.049,0.107,0.071,0.231,0.066c0.123-0.005,0.216-0.091,0.277-0.257l7.157-15.029c0.216-0.391,0.411-0.586,0.587-0.586
				h4.488c0.082,0,0.123,0.039,0.123,0.117v0.352c0,0.078-0.025,0.117-0.077,0.117c-0.308,0-0.688,0.098-1.141,0.293
				c-0.689,0.293-1.034,0.728-1.034,1.304l0.926,16.187c0.021,0.508,0.298,0.918,0.833,1.23c0.534,0.313,1.234,0.469,2.098,0.469
				c0.082,0,0.124,0.039,0.124,0.117v0.352c0,0.078-0.042,0.117-0.124,0.117h-8.762c-0.082,0-0.123-0.039-0.123-0.117v-0.352
				c0-0.078,0.041-0.117,0.123-0.117c1.841,0,2.762-0.425,2.762-1.274l-0.818-13.989c-0.01-0.098-0.038-0.146-0.084-0.146
				c-0.047,0-0.085,0.044-0.116,0.132l-7.666,15.762c-0.042,0.068-0.16,0.103-0.355,0.103s-0.309-0.039-0.339-0.117l-7.559-15.791
				c-0.062-0.137-0.121-0.205-0.178-0.205s-0.085,0.107-0.085,0.322c0,0.449-0.123,2.568-0.37,6.357
				c-0.246,3.789-0.37,6.152-0.37,7.09v0.601c0.124,0.557,0.704,0.918,1.743,1.084C19.164,206.423,19.479,206.447,19.808,206.447z"
				/>
			<path fill="#0E2B2C" d="M52.248,206.447c0.062,0,0.092,0.039,0.092,0.117v0.352c0,0.078-0.03,0.117-0.092,0.117h-7.204
				c-0.082,0-0.123-0.039-0.123-0.117v-0.352c0-0.078,0.041-0.117,0.123-0.117c1.687,0,2.602-0.688,2.746-2.065
				c0.041-0.4,0.085-1.066,0.131-1.999s0.183-2.939,0.409-6.021c0.226-3.081,0.339-5.574,0.339-7.479v-0.542
				c0-0.391-0.234-0.718-0.702-0.981s-0.81-0.396-1.025-0.396s-0.324-0.039-0.324-0.117v-0.352c0-0.078,0.041-0.117,0.124-0.117
				h4.458c0.194,0.029,0.354,0.137,0.478,0.322l7.234,15.308c0.052,0.068,0.093,0.127,0.124,0.176
				c0.03,0.049,0.107,0.071,0.231,0.066c0.123-0.005,0.216-0.091,0.277-0.257l7.157-15.029c0.216-0.391,0.411-0.586,0.587-0.586
				h4.488c0.082,0,0.123,0.039,0.123,0.117v0.352c0,0.078-0.025,0.117-0.077,0.117c-0.308,0-0.688,0.098-1.141,0.293
				c-0.689,0.293-1.034,0.728-1.034,1.304l0.926,16.187c0.021,0.508,0.298,0.918,0.833,1.23c0.534,0.313,1.234,0.469,2.098,0.469
				c0.082,0,0.124,0.039,0.124,0.117v0.352c0,0.078-0.042,0.117-0.124,0.117h-8.762c-0.082,0-0.123-0.039-0.123-0.117v-0.352
				c0-0.078,0.041-0.117,0.123-0.117c1.841,0,2.762-0.425,2.762-1.274l-0.818-13.989c-0.01-0.098-0.038-0.146-0.084-0.146
				c-0.047,0-0.085,0.044-0.116,0.132l-7.666,15.762c-0.042,0.068-0.16,0.103-0.355,0.103s-0.309-0.039-0.339-0.117l-7.559-15.791
				c-0.062-0.137-0.121-0.205-0.178-0.205s-0.085,0.107-0.085,0.322c0,0.449-0.123,2.568-0.37,6.357
				c-0.246,3.789-0.37,6.152-0.37,7.09v0.601c0.124,0.557,0.704,0.918,1.743,1.084C51.604,206.423,51.919,206.447,52.248,206.447z"
				/>
			<path fill="#0E2B2C" d="M93.806,206.989c-1.06,0.293-2,0.439-2.823,0.439c-1.687,0-3.296-0.259-4.828-0.776
				c-2.098-0.723-3.784-1.792-5.06-3.208c-1.625-1.807-2.437-4.097-2.437-6.87c0-2.002,0.539-3.825,1.619-5.471
				s2.573-2.947,4.481-3.904c1.907-0.957,3.959-1.436,6.154-1.436s4.162,0.464,5.9,1.392s3.132,2.202,4.181,3.823
				s1.573,3.377,1.573,5.267s-0.52,3.687-1.558,5.391c-1.039,1.704-2.464,3.083-4.273,4.138
				C95.842,206.291,94.864,206.696,93.806,206.989z M81.897,196.106c0,1.621,0.378,3.23,1.134,4.827s1.838,2.897,3.247,3.903
				c1.408,1.006,3.038,1.509,4.89,1.509c2.633,0,4.684-0.957,6.154-2.871c1.327-1.729,1.99-3.936,1.99-6.621s-0.813-5-2.438-6.943
				c-0.792-0.947-1.761-1.706-2.907-2.277c-1.147-0.571-2.304-0.857-3.471-0.857c-1.168,0-2.124,0.122-2.869,0.366
				c-0.746,0.244-1.422,0.579-2.028,1.004c-0.607,0.425-1.142,0.93-1.604,1.516s-0.849,1.221-1.157,1.904
				C82.211,192.971,81.897,194.484,81.897,196.106z"/>
			<path fill="#0E2B2C" d="M107.227,207.033c-0.082,0-0.123-0.039-0.123-0.117v-0.352c0-0.078,0.072-0.117,0.216-0.117
				c0.483,0,1.019-0.049,1.604-0.146c1.882-0.303,2.822-0.918,2.822-1.846v-15.454c-0.103-1.25-0.704-1.929-1.805-2.036
				c-0.329-0.039-0.693-0.059-1.095-0.059h-0.879c-0.083,0-0.124-0.039-0.124-0.117v-0.366c0-0.078,0.041-0.117,0.124-0.117
				l0.679-0.015l2.652-0.015l5.492-0.161c5.882,0,8.823,1.65,8.823,4.951c0,1.396-0.762,2.559-2.283,3.486
				c-0.236,0.146-0.439,0.254-0.609,0.322s-0.265,0.107-0.285,0.117c1.357,0.723,2.424,1.533,3.201,2.432
				c0.776,0.898,1.164,1.973,1.164,3.223c0,2.666-1.326,4.521-3.979,5.566c-1.368,0.547-2.854,0.82-4.458,0.82H107.227z
				 M114.801,194.421c0,0.186,0.118,0.278,0.354,0.278h3.795c0.987,0,1.817-0.347,2.491-1.04s1.011-1.47,1.011-2.329
				c0-1.533-0.458-2.644-1.373-3.332s-2.134-1.033-3.656-1.033c-0.463,0.029-0.784,0.044-0.964,0.044s-0.368-0.002-0.563-0.007
				c-0.196-0.005-0.392,0.007-0.587,0.036s-0.329,0.093-0.4,0.19c-0.072,0.098-0.108,0.259-0.108,0.483V194.421z M115.032,195.608
				c-0.134,0-0.2,0.054-0.2,0.161v8.027c0,0.693,0.342,1.25,1.025,1.67s1.422,0.63,2.214,0.63c1.521,0,2.817-0.515,3.887-1.545
				s1.604-2.3,1.604-3.809s-0.573-2.742-1.72-3.699c-1.147-0.957-2.6-1.436-4.358-1.436H115.032z"/>
			<path fill="#0E2B2C" d="M134.995,188.723c0-1.172-0.71-1.758-2.129-1.758c-0.227,0-0.34-0.039-0.34-0.117v-0.352
				c0-0.078,0.041-0.117,0.124-0.117h7.728c0.082,0,0.124,0.039,0.124,0.117v0.352c0,0.078-0.227,0.117-0.679,0.117
				c-0.453,0-0.869,0.137-1.25,0.41s-0.57,0.835-0.57,1.685v15.63c0,1.172,0.714,1.758,2.144,1.758c0.216,0,0.324,0.039,0.324,0.117
				v0.352c0,0.078-0.041,0.117-0.123,0.117h-7.729c-0.082,0-0.123-0.039-0.123-0.117v-0.352c0-0.078,0.226-0.117,0.679-0.117
				c0.452,0,0.868-0.137,1.249-0.41s0.571-0.835,0.571-1.685V188.723z"/>
			<path fill="#0E2B2C" d="M145.314,207.033c-0.082,0-0.123-0.039-0.123-0.117v-0.352c0-0.078,0.041-0.117,0.123-0.117h0.37
				c0.885,0,1.656-0.176,2.314-0.527c0.267-0.146,0.488-0.373,0.663-0.681s0.262-0.652,0.262-1.033v-15.498
				c0-0.605-0.411-1.069-1.233-1.392c-0.576-0.234-1.188-0.352-1.836-0.352h-0.339c-0.083,0-0.124-0.039-0.124-0.117v-0.352
				c0-0.078,0.041-0.117,0.124-0.117h10.442c0.082,0,0.124,0.039,0.124,0.117v0.352c0,0.078-0.042,0.117-0.124,0.117h-0.663
				c-1.06,0-1.995,0.142-2.808,0.425c-0.236,0.078-0.388,0.208-0.455,0.389c-0.066,0.181-0.1,0.49-0.1,0.93v16.245
				c0.021,0.166,0.112,0.322,0.277,0.469c0.164,0.146,0.35,0.22,0.556,0.22h6.093c0.915,0,1.814-0.513,2.699-1.538
				c0.236-0.273,0.529-0.637,0.879-1.091s0.565-0.711,0.648-0.77c0.329-0.234,0.493-0.229,0.493,0.015
				c0,0.059-0.015,0.117-0.046,0.176l-2.329,4.336c-0.093,0.176-0.201,0.264-0.324,0.264H145.314z"/>
			<path fill="#0E2B2C" d="M170.26,188.723c0-1.172-0.71-1.758-2.129-1.758c-0.227,0-0.34-0.039-0.34-0.117v-0.352
				c0-0.078,0.041-0.117,0.124-0.117h7.728c0.082,0,0.124,0.039,0.124,0.117v0.352c0,0.078-0.227,0.117-0.679,0.117
				c-0.453,0-0.869,0.137-1.25,0.41s-0.57,0.835-0.57,1.685v15.63c0,1.172,0.714,1.758,2.144,1.758c0.216,0,0.324,0.039,0.324,0.117
				v0.352c0,0.078-0.041,0.117-0.123,0.117h-7.729c-0.082,0-0.123-0.039-0.123-0.117v-0.352c0-0.078,0.226-0.117,0.679-0.117
				c0.452,0,0.868-0.137,1.249-0.41s0.571-0.835,0.571-1.685V188.723z"/>
			<path fill="#0E2B2C" d="M188.046,206.916c0,0.078-0.041,0.117-0.123,0.117h-7.883c-0.082,0-0.123-0.039-0.123-0.117v-0.352
				c0-0.078,0.066-0.117,0.2-0.117c1.409-0.059,2.36-0.771,2.854-2.139l6.293-17.3c0.011-0.02,0.016-0.044,0.016-0.073l-0.17-0.483
				c0-0.049,0.021-0.073,0.062-0.073h3.086c0.021,0.01,0.048,0.02,0.084,0.029s0.064,0.039,0.085,0.088l6.525,17.388
				c0.144,0.264,0.26,0.503,0.347,0.718c0.088,0.215,0.188,0.41,0.301,0.586c0.247,0.4,0.653,0.708,1.219,0.923
				c0.473,0.225,0.905,0.337,1.296,0.337c0.082,0,0.123,0.044,0.123,0.132v0.337c0,0.078-0.041,0.117-0.123,0.117h-9.44
				c-0.082,0-0.123-0.039-0.123-0.117v-0.352c0-0.078,0.189-0.127,0.57-0.146s0.694-0.039,0.941-0.059
				c1.429-0.146,2.144-0.605,2.144-1.377c0-0.059-0.01-0.127-0.03-0.205l-2.329-6.24c-0.011-0.02-0.031-0.063-0.063-0.132
				c-0.123-0.332-0.339-0.498-0.647-0.498h-5.477c-0.308,0-0.55,0.161-0.725,0.483c-0.031,0.068-0.046,0.107-0.046,0.117
				l-2.314,6.431v0.132c0,0.254,0.139,0.483,0.417,0.688c0.627,0.459,1.471,0.688,2.529,0.688h0.401
				c0.082,0,0.123,0.039,0.123,0.117V206.916z M192.612,196.281c0.185,0,0.277-0.073,0.277-0.22c0-0.078-0.021-0.166-0.062-0.264
				l-2.299-6.006c-0.103-0.264-0.18-0.396-0.23-0.396c-0.052,0-0.134,0.137-0.247,0.41l-2.16,5.991
				c-0.041,0.098-0.062,0.203-0.062,0.315s0.077,0.168,0.231,0.168H192.612z"/>
			<path fill="#0E2B2C" d="M205.802,207.033c-0.082,0-0.123-0.098-0.123-0.293v-0.176c0-0.078,0.041-0.117,0.123-0.117
				c0.063,0,0.16-0.01,0.293-0.029c0.134-0.02,0.272-0.039,0.417-0.059c0.144-0.02,0.277-0.041,0.401-0.065
				c0.123-0.024,0.21-0.042,0.262-0.052c1.049-0.225,1.573-0.791,1.573-1.699v-15.469c0-0.84-0.354-1.436-1.064-1.787
				c-0.421-0.215-0.874-0.322-1.357-0.322h-0.586c-0.082,0-0.123-0.039-0.123-0.117v-0.352c0-0.078,0.062-0.117,0.185-0.117
				l8.469-0.22h1.559c1.82,0.117,3.345,0.745,4.573,1.883s1.844,2.539,1.844,4.204s-0.73,2.961-2.19,3.889
				c-0.453,0.283-0.941,0.537-1.466,0.762l4.674,7.251c0.813,1.27,1.902,2.163,3.271,2.681c0.113,0.029,0.17,0.098,0.17,0.205
				c0,0.244-0.17,0.366-0.51,0.366c-2.313,0-4.154-0.835-5.522-2.505c-0.298-0.371-0.596-0.786-0.895-1.245l-3.995-5.947
				l-3.671-0.161h-0.124c-0.153,0-0.23,0.068-0.23,0.205v6.753c0,0.537,0.159,0.938,0.478,1.201s0.869,0.444,1.65,0.542
				c0.206,0.029,0.458,0.071,0.756,0.125c0.299,0.054,0.502,0.08,0.609,0.08c0.108,0,0.162,0.039,0.162,0.117v0.352
				c0,0.078-0.041,0.117-0.123,0.117H205.802z M213.006,186.929c-0.123,0.005-0.255,0.01-0.394,0.015s-0.316,0.01-0.532,0.015
				s-0.323,0.085-0.323,0.241v8.877l0.03,0.439c0.031,0.205,0.129,0.313,0.293,0.322l1.573,0.088c2.89,0,4.633-0.977,5.229-2.93
				c0.195-0.615,0.293-1.318,0.293-2.109c0-1.543-0.506-2.759-1.52-3.647c-1.013-0.889-2.306-1.333-3.879-1.333
				c-0.145,0-0.278,0.003-0.401,0.008S213.129,186.924,213.006,186.929z"/>
			<path fill="#0E2B2C" d="M229.682,206.916v-0.41c0-0.078,0.041-0.117,0.123-0.117h0.339c0.433-0.029,0.874-0.046,1.327-0.051
				c0.452-0.005,0.863-0.057,1.234-0.154c0.843-0.234,1.265-0.82,1.265-1.758v-15.439c0-0.967-0.602-1.582-1.805-1.846
				c-0.34-0.068-0.685-0.127-1.034-0.176h-0.323c-0.083,0-0.124-0.039-0.124-0.117v-0.352c0-0.078,0.041-0.117,0.124-0.117h14.669
				c0.186,0,0.319,0.032,0.401,0.096s0.134,0.202,0.154,0.417l0.277,4.248c0,0.098-0.077,0.146-0.231,0.146
				s-0.268-0.044-0.339-0.132c-0.062-0.098-0.142-0.454-0.239-1.069s-0.275-1.128-0.532-1.538s-0.709-0.669-1.357-0.776h-6.433
				c-0.134,0-0.2,0.063-0.2,0.19v7.573c0,0.098,0.052,0.146,0.154,0.146h5.337c1.378,0,2.067-0.762,2.067-2.285
				c0-0.078,0.041-0.117,0.123-0.117h0.37c0.083,0,0.124,0.039,0.124,0.117v6.27c0,0.078-0.041,0.117-0.124,0.117h-0.37
				c-0.082,0-0.123-0.039-0.123-0.117c0-1.445-0.442-2.28-1.327-2.505c-0.246-0.059-0.509-0.088-0.786-0.088h-5.291
				c-0.103,0-0.154,0.049-0.154,0.146v7.134c0,0.732,0.354,1.147,1.064,1.245c0.205,0.029,0.422,0.044,0.647,0.044h5.137
				c1.06,0,1.882-0.444,2.469-1.333c0.421-0.635,0.679-1.362,0.771-2.183c0.031-0.273,0.186-0.41,0.463-0.41
				c0.124,0,0.186,0.063,0.186,0.19l-0.509,4.922c-0.063,0.137-0.134,0.205-0.217,0.205h-17.184
				C229.723,207.033,229.682,206.994,229.682,206.916z"/>
		</g>
	</g>
	<g>
		<path fill="#1B1B1B" d="M51.432,242.284c0-0.052,0.027-0.078,0.082-0.078c0.13-0.007,0.282-0.024,0.458-0.054
			c0.175-0.029,0.353-0.091,0.534-0.186s0.358-0.234,0.529-0.42c0.172-0.186,0.315-0.441,0.433-0.767l4.134-11.387
			c0,0.007,0.002,0.004,0.005-0.01c0.004-0.013,0.005-0.025,0.005-0.039c0-0.045-0.019-0.103-0.056-0.171
			c-0.038-0.068-0.057-0.118-0.057-0.151c0-0.032,0.014-0.049,0.041-0.049h2.982c0.014,0.007,0.032,0.014,0.057,0.02
			c0.023,0.007,0.042,0.026,0.056,0.059l4.351,11.592c0.068,0.183,0.134,0.339,0.195,0.469s0.135,0.246,0.221,0.347
			s0.194,0.192,0.324,0.273s0.298,0.164,0.504,0.249c0.096,0.046,0.227,0.095,0.391,0.146c0.165,0.052,0.322,0.078,0.474,0.078
			c0.034,0,0.057,0.01,0.066,0.029c0.011,0.02,0.016,0.039,0.016,0.059v0.371c0,0.013-0.005,0.029-0.016,0.049
			c-0.01,0.02-0.032,0.029-0.066,0.029h-7.22c-0.034,0-0.057-0.01-0.066-0.029c-0.011-0.02-0.016-0.036-0.016-0.049v-0.381
			c0-0.013,0.005-0.029,0.016-0.049c0.01-0.02,0.032-0.029,0.066-0.029c0.027,0,0.055-0.002,0.082-0.005s0.048-0.005,0.063-0.005
			c0.075-0.007,0.183-0.013,0.323-0.02s0.293-0.018,0.458-0.034c0.164-0.017,0.331-0.042,0.499-0.078s0.32-0.088,0.457-0.156
			c0.138-0.068,0.25-0.158,0.34-0.269c0.089-0.11,0.134-0.247,0.134-0.41c0-0.039-0.007-0.085-0.021-0.137l-1.348-3.525
			c-0.007-0.013-0.019-0.042-0.036-0.088c-0.017-0.046-0.044-0.093-0.082-0.142s-0.086-0.093-0.144-0.132
			c-0.059-0.039-0.129-0.059-0.211-0.059h-3.713c-0.089,0-0.164,0.02-0.226,0.059c-0.063,0.039-0.113,0.081-0.154,0.127
			c-0.042,0.046-0.074,0.091-0.098,0.137c-0.024,0.046-0.036,0.071-0.036,0.078c-0.22,0.612-0.405,1.128-0.556,1.548
			s-0.276,0.767-0.375,1.04c-0.1,0.273-0.177,0.485-0.231,0.635c-0.056,0.149-0.095,0.259-0.118,0.327
			c-0.024,0.068-0.04,0.119-0.047,0.151c0,0.02,0.004,0.041,0.011,0.063s0.014,0.044,0.021,0.063
			c0.055,0.163,0.155,0.298,0.303,0.405s0.317,0.192,0.51,0.254c0.191,0.062,0.389,0.105,0.591,0.132s0.383,0.039,0.54,0.039h0.268
			c0.034,0,0.057,0.01,0.066,0.029c0.011,0.02,0.016,0.036,0.016,0.049v0.381c0,0.013-0.005,0.029-0.016,0.049
			c-0.01,0.02-0.032,0.029-0.066,0.029h-5.563c-0.055,0-0.082-0.026-0.082-0.078V242.284z M56.82,235.741
			c-0.015,0.032-0.024,0.065-0.031,0.098s-0.01,0.065-0.01,0.098c0,0.039,0.01,0.07,0.03,0.093s0.062,0.034,0.123,0.034h3.086
			c0.075,0,0.125-0.015,0.148-0.044c0.024-0.029,0.036-0.063,0.036-0.103c0-0.032-0.003-0.062-0.01-0.088s-0.018-0.056-0.031-0.088
			l-1.368-3.564c-0.034-0.091-0.085-0.157-0.153-0.2c-0.069-0.042-0.131-0.063-0.186-0.063s-0.116,0.024-0.186,0.073
			c-0.068,0.049-0.119,0.116-0.154,0.2L56.82,235.741z"/>
		<path fill="#1B1B1B" d="M69.988,235.741c0-0.657,0.093-1.289,0.277-1.895c0.186-0.605,0.446-1.173,0.782-1.704
			c0.336-0.53,0.738-1.012,1.208-1.445c0.47-0.433,0.985-0.806,1.548-1.118c0.562-0.313,1.163-0.553,1.805-0.723
			c0.641-0.169,1.301-0.254,1.979-0.254c0.363,0,0.733,0.021,1.11,0.063c0.377,0.043,0.746,0.097,1.105,0.161
			c0.36,0.065,0.701,0.137,1.023,0.215s0.605,0.15,0.849,0.215c0.243,0.065,0.442,0.119,0.597,0.161
			c0.154,0.043,0.241,0.063,0.262,0.063h0.124c0.055,0,0.098-0.005,0.128-0.015c0.031-0.01,0.059-0.021,0.082-0.034
			c0.024-0.013,0.05-0.024,0.077-0.034s0.069-0.015,0.124-0.015h0.411c0.014,0,0.036,0.005,0.066,0.015
			c0.031,0.01,0.047,0.041,0.047,0.093v3.252c0,0.072-0.033,0.121-0.098,0.146c-0.065,0.026-0.122,0.039-0.17,0.039
			c-0.062-0.006-0.116-0.039-0.164-0.098c-0.049-0.059-0.093-0.123-0.134-0.195c-0.041-0.071-0.076-0.14-0.104-0.205
			c-0.027-0.064-0.044-0.113-0.051-0.146c-0.172-0.508-0.413-0.936-0.726-1.284c-0.312-0.348-0.679-0.633-1.1-0.854
			c-0.422-0.221-0.885-0.381-1.389-0.479s-1.033-0.146-1.589-0.146c-0.953,0-1.748,0.166-2.386,0.498s-1.15,0.778-1.537,1.338
			c-0.388,0.561-0.662,1.206-0.823,1.938s-0.241,1.503-0.241,2.31c0,0.554,0.058,1.097,0.175,1.631
			c0.116,0.534,0.282,1.04,0.498,1.519c0.217,0.479,0.479,0.918,0.787,1.318s0.653,0.745,1.033,1.035
			c0.381,0.29,0.792,0.516,1.234,0.679s0.91,0.244,1.403,0.244c0.556,0,1.044-0.057,1.466-0.171s0.763-0.337,1.023-0.669v-2.158
			c0-0.28-0.036-0.529-0.108-0.747c-0.071-0.218-0.204-0.402-0.396-0.552c-0.192-0.149-0.453-0.264-0.782-0.342
			s-0.75-0.117-1.265-0.117c-0.041,0-0.07-0.037-0.087-0.112c-0.018-0.075-0.026-0.139-0.026-0.19c0-0.032,0.009-0.088,0.026-0.166
			c0.017-0.078,0.046-0.117,0.087-0.117h7.157c0.056,0,0.088,0.037,0.098,0.112c0.011,0.075,0.016,0.132,0.016,0.171
			c0,0.032-0.007,0.085-0.021,0.156s-0.045,0.12-0.093,0.146c-0.185,0.071-0.375,0.134-0.57,0.186s-0.375,0.12-0.54,0.205
			c-0.164,0.085-0.3,0.2-0.406,0.347s-0.159,0.347-0.159,0.601v2.852c0,0.052-0.022,0.095-0.066,0.127
			c-0.045,0.032-0.115,0.068-0.211,0.107c-0.385,0.176-0.819,0.342-1.307,0.498c-0.486,0.156-0.987,0.295-1.501,0.415
			c-0.515,0.12-1.025,0.217-1.532,0.288c-0.508,0.071-0.971,0.107-1.389,0.107c-1.063,0-2.057-0.168-2.982-0.503
			c-0.925-0.335-1.734-0.817-2.427-1.445s-1.237-1.392-1.635-2.29S69.988,236.861,69.988,235.741z"/>
		<path fill="#1B1B1B" d="M87.591,242.245c0-0.007,0.003-0.021,0.01-0.044s0.031-0.034,0.072-0.034h0.227
			c0.287-0.02,0.582-0.031,0.884-0.034s0.576-0.039,0.823-0.107c0.246-0.068,0.448-0.188,0.606-0.361
			c0.157-0.173,0.236-0.441,0.236-0.806v-10c0-0.254-0.055-0.46-0.164-0.62c-0.11-0.159-0.254-0.288-0.433-0.386
			c-0.178-0.098-0.38-0.171-0.606-0.22s-0.456-0.089-0.688-0.122h-0.217c-0.034,0-0.056-0.01-0.066-0.029s-0.016-0.035-0.016-0.049
			v-0.381c0-0.013,0.005-0.029,0.016-0.049s0.032-0.029,0.066-0.029h10.243c0.123,0,0.212,0.021,0.268,0.063
			c0.055,0.043,0.089,0.136,0.103,0.278l0.185,3.125c0,0.033-0.028,0.058-0.087,0.073c-0.059,0.017-0.111,0.024-0.159,0.024
			c-0.056,0-0.11-0.006-0.165-0.02c-0.055-0.013-0.093-0.032-0.113-0.059c-0.048-0.064-0.082-0.161-0.103-0.288
			s-0.043-0.269-0.066-0.425c-0.024-0.156-0.059-0.318-0.104-0.488c-0.044-0.169-0.111-0.325-0.2-0.469
			c-0.089-0.143-0.211-0.269-0.365-0.376s-0.352-0.181-0.591-0.22h-3.672c-0.089,0-0.134,0.043-0.134,0.127v4.658
			c0,0.065,0.034,0.098,0.104,0.098h2.94c0.172,0,0.342-0.021,0.51-0.063c0.168-0.042,0.314-0.118,0.441-0.229
			c0.127-0.11,0.23-0.265,0.309-0.464c0.079-0.198,0.118-0.454,0.118-0.767c0-0.052,0.027-0.078,0.083-0.078h0.4
			c0.056,0,0.083,0.026,0.083,0.078v4.473c0,0.032-0.011,0.054-0.031,0.063s-0.038,0.015-0.052,0.015h-0.4
			c-0.034,0-0.057-0.01-0.067-0.029c-0.01-0.02-0.016-0.036-0.016-0.049c0-0.364-0.039-0.659-0.118-0.884
			c-0.078-0.225-0.184-0.4-0.313-0.527s-0.279-0.212-0.447-0.254s-0.345-0.063-0.529-0.063h-2.91c-0.069,0-0.104,0.032-0.104,0.098
			v4.268c0,0.188,0.031,0.34,0.093,0.454s0.146,0.2,0.252,0.259s0.228,0.098,0.365,0.117c0.137,0.02,0.281,0.029,0.432,0.029h2.808
			c0.397,0,0.73-0.086,0.998-0.259c0.267-0.173,0.482-0.383,0.647-0.63c0.164-0.247,0.286-0.505,0.365-0.771
			c0.078-0.267,0.128-0.495,0.149-0.684c0.013-0.085,0.058-0.151,0.133-0.2c0.076-0.049,0.161-0.073,0.258-0.073
			c0.034,0,0.075,0.013,0.123,0.039s0.072,0.056,0.072,0.088l-0.34,3.574c-0.014,0.032-0.032,0.063-0.057,0.093
			c-0.023,0.029-0.053,0.044-0.087,0.044H87.673c-0.041,0-0.065-0.012-0.072-0.034s-0.01-0.037-0.01-0.044v-0.137V242.245z"/>
		<path fill="#1B1B1B" d="M103.206,242.719c-0.021-0.017-0.03-0.034-0.03-0.054v-0.43c0-0.052,0.027-0.078,0.082-0.078
			c0.075,0,0.161,0,0.257,0c0.097,0,0.19-0.003,0.283-0.01s0.177-0.013,0.252-0.02s0.134-0.02,0.175-0.039
			c0.171-0.078,0.312-0.183,0.422-0.313c0.109-0.13,0.193-0.28,0.252-0.449c0.058-0.169,0.098-0.354,0.118-0.557
			s0.03-0.417,0.03-0.645v-9.756c0-0.176-0.073-0.317-0.221-0.425s-0.318-0.188-0.515-0.244c-0.195-0.055-0.394-0.093-0.596-0.112
			s-0.355-0.029-0.458-0.029c-0.034,0-0.057-0.01-0.066-0.029c-0.011-0.02-0.016-0.035-0.016-0.049v-0.43
			c0-0.013,0.005-0.029,0.016-0.049c0.01-0.02,0.032-0.029,0.066-0.029h4.658l8.865,9.316c0.034,0.032,0.058,0.057,0.071,0.073
			s0.031,0.024,0.052,0.024c0.027,0,0.045-0.01,0.052-0.029s0.01-0.039,0.01-0.059v-5.801c0-0.645-0.023-1.16-0.071-1.548
			c-0.049-0.387-0.138-0.684-0.268-0.889c-0.131-0.205-0.306-0.34-0.524-0.405c-0.22-0.064-0.501-0.098-0.844-0.098h-0.524
			c-0.034,0-0.057-0.01-0.066-0.029c-0.011-0.02-0.016-0.035-0.016-0.049v-0.43c0-0.013,0.005-0.029,0.016-0.049
			c0.01-0.02,0.032-0.029,0.066-0.029h5.656c0.041,0,0.065,0.01,0.072,0.029s0.01,0.036,0.01,0.049v0.43
			c0,0.014-0.005,0.029-0.016,0.049c-0.01,0.02-0.032,0.029-0.066,0.029c-0.138,0-0.313,0.026-0.529,0.078
			c-0.217,0.053-0.427,0.127-0.633,0.225s-0.382,0.219-0.529,0.361c-0.147,0.144-0.222,0.307-0.222,0.488v11.553
			c0,0.11-0.027,0.203-0.082,0.278s-0.125,0.135-0.211,0.181s-0.179,0.08-0.277,0.103c-0.1,0.022-0.19,0.034-0.272,0.034
			c-0.138,0-0.297-0.027-0.479-0.083s-0.361-0.178-0.54-0.366l-9.708-10.225c-0.048-0.045-0.082-0.073-0.103-0.083
			s-0.048-0.015-0.082-0.015s-0.052,0.033-0.052,0.098v8.721c0,0.183,0.047,0.34,0.139,0.474c0.093,0.134,0.211,0.247,0.355,0.342
			c0.144,0.095,0.303,0.169,0.478,0.225s0.347,0.1,0.515,0.132s0.318,0.054,0.452,0.063s0.235,0.015,0.304,0.015
			c0.034,0,0.058,0.013,0.072,0.039c0.006,0.013,0.01,0.026,0.01,0.039v0.43c0,0.013-0.005,0.029-0.016,0.049
			c-0.01,0.02-0.032,0.029-0.066,0.029h-5.656C103.244,242.743,103.227,242.735,103.206,242.719z"/>
		<path fill="#1B1B1B" d="M123.205,242.323c0-0.071,0.014-0.145,0.041-0.22s0.068-0.142,0.123-0.2l9.307-11.436
			c0.027-0.032,0.042-0.064,0.042-0.098c0-0.052-0.024-0.081-0.072-0.088c-0.048-0.006-0.093-0.01-0.134-0.01h-5.132
			c-0.157,0-0.323,0.021-0.498,0.063c-0.176,0.043-0.34,0.104-0.494,0.186c-0.154,0.082-0.293,0.183-0.416,0.303
			c-0.124,0.121-0.21,0.263-0.258,0.425c-0.027,0.072-0.063,0.207-0.107,0.405c-0.045,0.199-0.108,0.497-0.19,0.894
			c-0.014,0.065-0.068,0.112-0.165,0.142c-0.096,0.029-0.202,0.044-0.318,0.044c-0.021,0-0.05,0-0.088,0
			c-0.037,0-0.075-0.003-0.112-0.01c-0.038-0.006-0.074-0.013-0.108-0.02c-0.034-0.006-0.055-0.016-0.062-0.029l0.154-3.369
			c0-0.02,0.003-0.054,0.01-0.103s0.018-0.089,0.031-0.122c0.021-0.052,0.059-0.084,0.113-0.098c0.027-0.006,0.055-0.01,0.082-0.01
			h11.559c0.021,0,0.04,0.017,0.057,0.049c0.018,0.033,0.034,0.07,0.052,0.112c0.017,0.043,0.03,0.088,0.041,0.137
			s0.016,0.09,0.016,0.122c0,0.137-0.045,0.268-0.134,0.391l-8.947,10.986c-0.021,0.032-0.06,0.088-0.118,0.166
			c-0.058,0.078-0.087,0.144-0.087,0.195c0,0.091,0.055,0.158,0.164,0.2s0.213,0.063,0.309,0.063h6.541
			c0.384,0,0.702-0.107,0.956-0.322s0.458-0.48,0.611-0.796c0.154-0.315,0.266-0.649,0.335-1.001
			c0.068-0.352,0.109-0.664,0.123-0.938c0.007-0.039,0.027-0.068,0.062-0.088s0.074-0.034,0.118-0.044
			c0.045-0.01,0.09-0.015,0.134-0.015c0.045,0,0.084,0,0.118,0c0.014,0,0.041,0.003,0.083,0.01c0.041,0.007,0.082,0.015,0.123,0.024
			s0.077,0.022,0.108,0.039c0.03,0.017,0.046,0.031,0.046,0.044v0.459l-0.216,3.398c-0.007,0.071-0.011,0.142-0.011,0.21
			s-0.009,0.129-0.025,0.181c-0.018,0.052-0.045,0.096-0.082,0.132c-0.038,0.036-0.098,0.054-0.181,0.054h-13.111
			c-0.089,0-0.159-0.015-0.211-0.044s-0.091-0.066-0.118-0.112s-0.045-0.093-0.052-0.142S123.205,242.356,123.205,242.323z"/>
		<path fill="#1B1B1B" d="M145.418,241.444c0.072,0.149,0.175,0.271,0.309,0.361s0.299,0.156,0.494,0.195s0.413,0.059,0.653,0.059
			c0.055,0,0.082,0.026,0.082,0.078v0.527c0,0.02-0.004,0.037-0.011,0.054s-0.03,0.024-0.071,0.024h-6.078
			c-0.034,0-0.057-0.01-0.066-0.029c-0.011-0.02-0.016-0.036-0.016-0.049v-0.527c0-0.013,0.005-0.029,0.016-0.049
			c0.01-0.02,0.032-0.029,0.066-0.029c0.24,0,0.458-0.015,0.653-0.044s0.361-0.093,0.498-0.19c0.138-0.098,0.244-0.237,0.319-0.42
			s0.113-0.43,0.113-0.742v-9.834c0-0.221-0.036-0.406-0.108-0.557c-0.072-0.149-0.175-0.27-0.309-0.361
			c-0.134-0.091-0.298-0.156-0.493-0.195s-0.413-0.059-0.653-0.059c-0.055,0-0.082-0.025-0.082-0.078v-0.527
			c0-0.052,0.027-0.078,0.082-0.078h6.078c0.034,0,0.056,0.01,0.066,0.029s0.016,0.036,0.016,0.049v0.527
			c0,0.014-0.005,0.029-0.016,0.049s-0.032,0.029-0.066,0.029c-0.24,0-0.458,0.015-0.653,0.044s-0.361,0.093-0.499,0.19
			c-0.137,0.098-0.243,0.238-0.318,0.42c-0.076,0.183-0.113,0.43-0.113,0.742v9.834
			C145.311,241.109,145.347,241.295,145.418,241.444z"/>
		<path fill="#1B1B1B" d="M149.534,242.284c0-0.052,0.027-0.078,0.082-0.078c0.13-0.007,0.282-0.024,0.458-0.054
			c0.175-0.029,0.353-0.091,0.534-0.186s0.358-0.234,0.529-0.42c0.172-0.186,0.315-0.441,0.433-0.767l4.134-11.387
			c0,0.007,0.002,0.004,0.005-0.01c0.004-0.013,0.005-0.025,0.005-0.039c0-0.045-0.019-0.103-0.056-0.171
			c-0.038-0.068-0.057-0.118-0.057-0.151c0-0.032,0.014-0.049,0.041-0.049h2.982c0.014,0.007,0.032,0.014,0.057,0.02
			c0.023,0.007,0.042,0.026,0.056,0.059l4.351,11.592c0.068,0.183,0.134,0.339,0.195,0.469s0.135,0.246,0.221,0.347
			s0.194,0.192,0.324,0.273s0.298,0.164,0.504,0.249c0.096,0.046,0.227,0.095,0.391,0.146c0.165,0.052,0.322,0.078,0.474,0.078
			c0.034,0,0.057,0.01,0.066,0.029c0.011,0.02,0.016,0.039,0.016,0.059v0.371c0,0.013-0.005,0.029-0.016,0.049
			c-0.01,0.02-0.032,0.029-0.066,0.029h-7.22c-0.034,0-0.057-0.01-0.066-0.029c-0.011-0.02-0.016-0.036-0.016-0.049v-0.381
			c0-0.013,0.005-0.029,0.016-0.049c0.01-0.02,0.032-0.029,0.066-0.029c0.027,0,0.055-0.002,0.082-0.005s0.048-0.005,0.063-0.005
			c0.075-0.007,0.183-0.013,0.323-0.02s0.293-0.018,0.458-0.034c0.164-0.017,0.331-0.042,0.499-0.078s0.32-0.088,0.457-0.156
			c0.138-0.068,0.25-0.158,0.34-0.269c0.089-0.11,0.134-0.247,0.134-0.41c0-0.039-0.007-0.085-0.021-0.137l-1.348-3.525
			c-0.007-0.013-0.019-0.042-0.036-0.088c-0.017-0.046-0.044-0.093-0.082-0.142s-0.086-0.093-0.144-0.132
			c-0.059-0.039-0.129-0.059-0.211-0.059h-3.713c-0.089,0-0.164,0.02-0.226,0.059c-0.063,0.039-0.113,0.081-0.154,0.127
			c-0.042,0.046-0.074,0.091-0.098,0.137c-0.024,0.046-0.036,0.071-0.036,0.078c-0.22,0.612-0.405,1.128-0.556,1.548
			s-0.276,0.767-0.375,1.04c-0.1,0.273-0.177,0.485-0.231,0.635c-0.056,0.149-0.095,0.259-0.118,0.327
			c-0.024,0.068-0.04,0.119-0.047,0.151c0,0.02,0.004,0.041,0.011,0.063s0.014,0.044,0.021,0.063
			c0.055,0.163,0.155,0.298,0.303,0.405s0.317,0.192,0.51,0.254c0.191,0.062,0.389,0.105,0.591,0.132s0.383,0.039,0.54,0.039h0.268
			c0.034,0,0.057,0.01,0.066,0.029c0.011,0.02,0.016,0.036,0.016,0.049v0.381c0,0.013-0.005,0.029-0.016,0.049
			c-0.01,0.02-0.032,0.029-0.066,0.029h-5.563c-0.055,0-0.082-0.026-0.082-0.078V242.284z M154.923,235.741
			c-0.015,0.032-0.024,0.065-0.031,0.098s-0.01,0.065-0.01,0.098c0,0.039,0.01,0.07,0.03,0.093s0.062,0.034,0.123,0.034h3.086
			c0.075,0,0.125-0.015,0.148-0.044c0.024-0.029,0.036-0.063,0.036-0.103c0-0.032-0.003-0.062-0.01-0.088s-0.018-0.056-0.031-0.088
			l-1.368-3.564c-0.034-0.091-0.085-0.157-0.153-0.2c-0.069-0.042-0.131-0.063-0.186-0.063s-0.116,0.024-0.186,0.073
			c-0.068,0.049-0.119,0.116-0.154,0.2L154.923,235.741z"/>
	</g>
	<g>
		<path fill="#AA9333" d="M175.86,243.952c-4.383,0-7.948-3.589-7.948-8s3.565-8,7.948-8s7.949,3.589,7.949,8
			S180.243,243.952,175.86,243.952z M175.86,230.952c-2.729,0-4.948,2.243-4.948,5s2.22,5,4.948,5c2.729,0,4.949-2.243,4.949-5
			S178.589,230.952,175.86,230.952z"/>
		<rect x="181.821" y="234.369" fill="#AA9333" width="18.792" height="3.167"/>
		<rect x="190.863" y="236.452" fill="#AA9333" width="3.125" height="4.083"/>
		<rect x="195.738" y="236.452" fill="#AA9333" width="3.083" height="4.083"/>
	</g>
	<polygon fill="#B79E2C" points="155.856,49.046 131.418,34.716 131.416,25.223 155.856,39.472 	"/>
	<polygon fill="#B79E2C" points="193.18,39.765 189.638,45.913 124.91,8.19 60.729,45.913 57.18,39.765 124.91,0 	"/>
	<g>
		<line fill="#B79E2C" x1="179.56" y1="34.473" x2="179.56" y2="101.223"/>
		<rect x="174.309" y="34.473" fill="#B79E2C" width="8.504" height="66.75"/>
	</g>
	<g>
		<line fill="#B79E2C" x1="71.935" y1="34.472" x2="71.935" y2="101.222"/>
		<rect x="67.683" y="34.472" fill="#B79E2C" width="8.504" height="66.75"/>
	</g>
	<polygon fill="#B79E2C" points="131.395,65.384 118.405,72.935 118.411,61.032 131.4,53.481 	"/>
	<path fill="none" stroke="#000000" stroke-width="0.25" stroke-miterlimit="10" d="M81.797,80.428"/>
	<path fill="none" stroke="#000000" stroke-width="0.25" stroke-miterlimit="10" d="M165.714,31.115"/>
	<polygon fill="#B79E2C" points="118.423,101.259 93.981,87.003 93.981,77.506 118.423,91.757 	"/>
</g>
</svg>
